<svg width="144" height="144" viewBox="0 0 144 144" fill="none" xmlns="http://www.w3.org/2000/svg">
  <!-- Outer circle with gradient -->
  <circle cx="72" cy="72" r="70" fill="url(#logoGradient)" stroke="white" stroke-width="4"/>
  
  <!-- Fish hook shape -->
  <path d="M72 30 C72 30, 90 35, 90 55 C90 70, 80 75, 72 75 L72 100" 
        stroke="white" 
        stroke-width="5" 
        stroke-linecap="round" 
        fill="none"/>
  
  <!-- Hook curve -->
  <path d="M72 100 C72 100, 80 100, 85 95 C90 90, 90 85, 85 80" 
        stroke="white" 
        stroke-width="5" 
        stroke-linecap="round" 
        fill="none"/>
  
  <!-- Fish silhouette -->
  <path d="M50 60 L35 65 L50 70 L55 75 L65 72 L55 68 L65 65 L55 62 L65 58 L55 55 Z" 
        fill="white" 
        opacity="0.9"/>
  
  <!-- Trophy elements -->
  <circle cx="72" cy="72" r="25" fill="none" stroke="#F0A720" stroke-width="3" opacity="0.5"/>
  
  <!-- Center star for champion -->
  <path d="M72 50 L74 58 L82 58 L76 63 L78 71 L72 66 L66 71 L68 63 L62 58 L70 58 Z" 
        fill="#F0A720" 
        opacity="0.8"/>
  
  <defs>
    <radialGradient id="logoGradient" cx="50%" cy="50%" r="50%">
      <stop offset="0%" stop-color="#207DF0"/>
      <stop offset="100%" stop-color="#3F6692"/>
    </radialGradient>
  </defs>
</svg>
